<?xml version="1.0" encoding="iso-8859-1"?>
<!-- Generator: Adobe Illustrator 18.0.0, SVG Export Plug-In . SVG Version: 6.00 Build 0)  -->
<!DOCTYPE svg PUBLIC "-//W3C//DTD SVG 1.1//EN" "http://www.w3.org/Graphics/SVG/1.1/DTD/svg11.dtd">
<svg version="1.1" id="Capa_1" xmlns="http://www.w3.org/2000/svg" xmlns:xlink="http://www.w3.org/1999/xlink" x="0px" y="0px"
	 viewBox="0 0 144.26 144.26" style="enable-background:new 0 0 144.26 144.26;" xml:space="preserve">
<g>
	<g>
		<circle style="fill:#FFFFFF;" cx="72.13" cy="72.13" r="72.13"/>
		<path style="fill:#48CEAA;" d="M41.825,6.655l30.309,65.565l30.311-65.562C83.269-2.217,61-2.217,41.825,6.655z"/>
		<path style="fill:#48CEAA;" d="M102.403,137.619L72.13,72.13l-30.276,65.487C61.009,146.472,83.247,146.472,102.403,137.619z"/>
		<path style="fill:#54A2BD;" d="M137.593,102.462c8.876-19.16,8.887-41.413,0.036-60.583L72.086,72.177L137.593,102.462z"/>
		<path style="fill:#54A2BD;" d="M6.635,41.872c-8.854,19.169-8.845,41.423,0.03,60.585l65.512-30.283L6.635,41.872z"/>
	</g>
	<path style="opacity:0.05;" d="M72.13,111.357c-29.224,0-57.448-12.031-71.961-43.894c-1.288,19.983,5.685,40.399,20.957,55.67
		c28.169,28.17,73.841,28.168,102.008,0c15.271-15.271,22.245-35.688,20.957-55.671C129.559,93.609,101.354,111.357,72.13,111.357z"
		/>
	<path style="opacity:0.15;" d="M125.423,108.868c-29.431,29.433-77.153,29.435-106.586,0c-7.794-7.793-13.512-16.871-17.172-26.55
		c-0.409-0.713-0.814-1.428-1.2-2.15c1.75,15.696,8.625,30.93,20.661,42.966c28.169,28.17,73.841,28.168,102.008,0
		c12.036-12.036,18.911-27.27,20.661-42.966c-0.387,0.723-0.791,1.438-1.2,2.15C138.934,91.998,133.217,101.075,125.423,108.868z"/>
	<circle style="opacity:0.1;fill:#FFFFFF;" cx="59.294" cy="47.018" r="41.172"/>
	<circle style="opacity:0.3;fill:#FFFFFF;" cx="52.065" cy="33.368" r="26.059"/>
</g>
<g>
</g>
<g>
</g>
<g>
</g>
<g>
</g>
<g>
</g>
<g>
</g>
<g>
</g>
<g>
</g>
<g>
</g>
<g>
</g>
<g>
</g>
<g>
</g>
<g>
</g>
<g>
</g>
<g>
</g>
</svg>
