<?xml version="1.0" encoding="iso-8859-1"?>
<!-- Generator: Adobe Illustrator 19.0.0, SVG Export Plug-In . SVG Version: 6.00 Build 0)  -->
<svg version="1.1" id="Layer_1" xmlns="http://www.w3.org/2000/svg" xmlns:xlink="http://www.w3.org/1999/xlink" x="0px" y="0px"
	 viewBox="0 0 258.122 258.122" style="enable-background:new 0 0 258.122 258.122;" xml:space="preserve">
<g>
	<path style="fill:#1D1D1B;" d="M75.013,50.027c0.362-0.08,0.723-0.12,1.085-0.201c-0.201-0.08-0.442-0.08-0.683,0.04
		C75.294,49.946,75.174,50.027,75.013,50.027z M71.075,41.588c0.804,0.121,1.286,0.804,1.366,1.447c0.603,0,1.206-0.04,1.808-0.161
		c0.723-0.201,1.527,0.201,1.728,0.964c0.241,0.964,0.321,1.889,0.321,2.853c1.648,0.161,3.255,1.085,3.255,2.652
		c2.09-0.201,4.179-0.362,6.269-0.321c8.077,0.04,20.977,0.201,23.348,9.484c0,0.121-0.04,0.241-0.04,0.322
		c0.402-0.08,0.804-0.201,1.206-0.281c2.331-2.853,6.309-1.728,9.323,0.522c0.402-4.019,3.416-7.073,7.193-8.359
		c-0.08-0.121-0.201-0.241-0.201-0.442c0-0.723,0.08-1.406,0.12-2.13c-4.581-17.32-14.507-31.224-31.385-38.98
		c-23.507-10.81-51.195-4.22-60.277,21.821c0.442,0.04,0.924,0.241,1.527,0.603c1.688,0.402,3.376,0.844,5.063,1.286
		c3.175,0.844,4.742,2.009,7.153-0.161c3.657-3.335,5.787-7.957,9.926-11.212c1.366-1.085,3.215-0.121,2.893,1.688
		c-0.804,4.34-1.648,8.72-2.451,13.101c0.764-0.522,1.487-1.085,2.17-1.808c0.643-0.603,1.728-0.683,2.371,0
		c1.246,1.366,1.286,3.175,2.17,4.099C65.931,38.293,72.361,41.588,71.075,41.588z M74.651,50.107c-0.965,0-1.768-0.964-1.527-2.009
		c0.201-0.844,0.201-1.728,0.161-2.572c-0.965-0.12-1.889-0.362-2.813-0.964c-2.009,0.04-3.938-1.125-5.626-2.009
		c-2.853-1.527-1.849-2.652-2.612-4.38c-1.326,1.085-2.692,1.929-4.461,2.692c-1.366,0.603-2.773-0.402-2.492-1.929
		c0.723-3.818,1.406-7.595,2.09-11.413c-2.813,2.934-5.104,6.189-7.033,9.966c-0.362,0.683-1.286,1.005-2.009,0.804
		c-3.376-1.005-14.427-2.331-15.873-6.108c-0.281-0.322-0.482-0.764-0.362-1.286c9.845-51.96,82.26-31.184,95.762,9.403
		c5.867-23.187,33.314-34.359,56.702-32.309c26.804,2.291,44.084,26.683,41.19,52.764c-0.161,1.286-1.607,1.648-2.291,0.965
		c-3.577,1.286-7.233,2.29-10.77,3.617c-0.763,0.241-1.607-0.201-2.009-0.844c-3.175-5.023-6.269-10.087-9.363-15.11
		c0.643,4.742,1.206,9.524,1.487,14.386c0.121,1.969-2.612,2.049-3.215,0.402c-0.362-0.442-0.683-0.924-1.005-1.366
		c-0.241,0.442-0.522,0.884-0.964,1.246c-1.969,1.728-3.858,0.201-5.988,1.165c23.348,13.221,37.333,43.923,21.098,72.736
		c0.161,0.563-0.241,1.206-0.884,1.286c-0.763,0.603-1.808,0.161-2.25-0.603c-3.134-1.085-6.148-2.331-9.162-3.657
		c-1.728-0.764-6.39-1.768-7.434-3.657c-1.005-1.808,0.08-3.376,0.764-5.104c0.844-2.291,1.487-4.581,2.009-6.872
		c-1.648,2.451-3.335,4.863-5.184,7.193c-0.884,1.125-2.813,0.161-2.773-1.165c0.04-1.447,0.121-2.934,0.161-4.38
		c-1.206,1.165-2.25,2.733-4.099,2.652c-1.206-0.04-3.737-2.853-4.421-2.572c-0.763,0.281-1.286,0-1.607-0.522
		c-1.125-0.201-2.17-0.563-3.215-1.206c-1.366-0.804-2.491-1.406-3.858-1.768c0.522,2.773,0.723,5.666,0.442,8.56
		c-1.808,21.258-30.983,26.322-47.258,20.133c-1.768-0.643-1.206-3.175,0.563-2.974c-0.201-3.737-0.482-7.434-1.085-11.131
		c-0.161-1.165,0.643-2.049,1.848-1.808c3.094,0.603,6.189,0.924,9.243,1.045c-3.496-1.447-7.032-2.773-10.649-3.938
		c-1.447-0.482-1.447-2.21-0.603-2.974c-0.04-0.402,0.04-0.844,0.442-1.045c0.241-0.121,4.179-1.929,4.179-2.13
		c-0.12-0.563-1.527-0.884-1.969-1.246c-0.924-0.884-1.768-1.889-1.487-3.295c0.281-1.085,1.005-1.487,1.849-2.09
		c0.281-0.201,1.567-0.281,1.768-0.563c0.643-1.045-0.281-0.804-0.804-1.648c-1.688-2.974-1.045-3.014,0.442-5.626
		c1.246-2.17-0.322-2.291-0.763-4.42c-0.201-1.045-0.08-1.728,0.442-2.371c-0.281-1.125-0.683-2.13-1.527-3.014
		c-0.442-0.482-0.522-1.165-0.201-1.728c0.683-1.286,0.643-2.451,0.965-3.697c-1.969-0.402-3.737-1.407-5.224-2.733
		c-28.09,29.577-26.442,74.826-26.201,113.846c0.04,0.281,0.04,0.522,0,0.764c0.04,5.063,0.04,10.006-0.04,14.788
		c-0.08,3.858-0.563,8.198-1.407,12.538c0.241,0.603,0.08,1.366-0.402,1.889c-3.295,14.467-11.493,28.331-27.286,24.875
		c-28.331,2.291-17.32-53.608-13.784-68.798c8.318-35.645,24.393-79.487,52.161-105.487c-0.04,0-0.04-0.04-0.08-0.04
		c-0.683-0.683,0.201-1.728,1.045-1.326c0.121,0.08,0.201,0.161,0.322,0.241c0.965-0.924,1.969-1.849,2.974-2.733
		c-1.246-0.442-2.451-1.045-3.496-1.889c-0.241,0.201-0.522,0.322-0.804,0.281c-3.657-0.482-8.077,5.706-10.448,7.876
		c-2.612,2.331-5.345,4.179-8.801,4.702c0.563,0.924-0.482,2.291-1.688,2.13c-1.808-0.281-6.39,3.496-8.72,4.42
		c-0.482-0.04-0.965-0.161-1.407-0.362c-0.884,0.321-1.045,0.924-0.442,1.768c-0.281,0.723,0.281,1.688-0.08,2.492
		c-1.688,3.737-5.666,1.969-9.162-0.402c0.884,1.688,1.768,3.416,2.532,5.144c0.482,1.085,1.165,2.009,0.844,3.215
		c-0.522,1.889-3.818,3.456-5.104,4.42c-2.853,2.13-5.666,4.3-8.56,6.349c0,0.884-0.643,1.728-1.648,1.326
		c-9.122-3.737-10.609-18.566-11.292-27.085c-1.005-12.216,2.532-23.549,11.413-32.148C58.135,55.572,66.132,51.755,74.651,50.107z
		 M216.708,60.435c2.17-0.241,4.179-0.804,6.269-1.125c-0.804-24.835-14.869-46.535-41.874-47.7
		c-24.031-1.045-46.173,11.453-51.638,35.082c0.201,1.125,0.321,2.25,0.402,3.376c5.104-0.402,9.645,2.612,11.332,7.434
		c1.125,3.215,0.844,6.229-0.322,8.76c16.195-10.288,33.796-9.645,48.263-2.411c-0.04-0.522,0.161-1.045,0.804-1.326
		c2.17-1.125,5.867-0.603,6.59-3.536c0.281-1.165,1.527-1.326,2.411-0.804c-0.522-5.546-1.246-11.091-2.371-16.597
		c-0.402-1.929,2.13-3.054,3.215-1.366c3.577,5.586,7.033,11.252,10.488,16.838C212.609,60.797,212.569,60.837,216.708,60.435z
		 M210.037,136.225c11.051-21.901,7.997-47.54-11.855-63.413c-18.767-14.989-42.517-12.94-61.846-0.482
		c2.009,1.929,2.813,5.144,2.893,7.957c0.04,2.05-0.322,3.938-1.125,5.666c14.467,2.652,27.809,14.145,31.907,28.451
		c1.487,0.04,2.934,0.522,4.219,1.286c1.326,0.804,2.532,1.889,3.898,2.652c0.121-0.121,0.281-0.241,0.482-0.281
		c2.733-1.125,2.773,0.884,4.822,1.206c1.889,0.281,3.456-2.17,5.827-2.612c0.965-0.201,2.049,0.402,2.009,1.527
		c0,0.643-0.04,1.326-0.04,1.969c2.049-2.974,4.019-6.028,5.787-9.243c0.763-1.366,3.175-0.804,3.054,0.844
		c-0.201,3.054-0.522,6.068-1.246,9.082c-0.402,1.688-3.175,6.872-2.773,8.278C196.575,131.081,205.416,134.216,210.037,136.225z
		 M126.21,143.619c18.325,4.219,46.696-1.808,40.668-26.643c-3.617-14.788-16.034-24.754-30.059-28.894
		c-1.005,1.246-2.371,2.291-4.099,2.974c-1.125,0.442-2.21,0.683-3.335,0.763c0.362,1.407-0.121,2.974-0.844,4.219
		c0.563,1.045,0.884,2.13,0.924,3.295c0.402,0.161,0.723,0.563,0.723,1.125c0,2.049,1.848,3.456,1.929,5.465
		c0.04,1.567-0.683,1.808-1.447,2.974c-1.326,2.049-0.362,0.965,0.844,3.175c0.522,1.005,0.844,1.929,0.402,3.014
		c-0.683,1.688-1.969,1.206-2.974,2.21c-1.005,0.924-0.362,0.241,0.844,1.527c0.482,0.482,0.884,0.764,1.125,1.527
		c0.804,2.692-1.848,3.777-4.219,4.461c5.626,1.768,11.131,3.938,16.436,6.51c1.688,0.844,0.643,3.054-0.884,3.215
		c-5.304,0.563-10.649,0.281-15.833-0.924C126.571,136.948,126.571,140.284,126.21,143.619z M124.562,68.191
		c6.671,4.943,16.677-0.322,14.065-9.002c-2.733-8.961-15.311-6.832-17.159,1.447c0.844,0.884,1.527,1.848,1.929,2.733
		c0.643,1.567,0.965,3.134,0.965,4.742C124.441,68.151,124.482,68.151,124.562,68.191z M135.854,81.452
		c0.241-2.853-0.121-7.153-3.335-8.158c-0.281-0.08-0.482-0.241-0.643-0.402c-2.572,0.402-5.345-0.04-7.876-1.688
		c-0.563,2.21-1.768,4.139-3.376,5.706c0.08,0.161,0.161,0.281,0.161,0.442c-0.482,5.746,2.934,12.739,9.725,10.77
		C133.684,87.199,135.533,84.627,135.854,81.452z M113.832,76.59c4.782-0.844,7.876-5.425,6.912-10.207
		c-0.442-2.331-1.728-4.461-3.818-5.626c-1.849-1.005-3.335-0.683-5.104-0.321c-4.38,0.844-8.198,4.903-7.314,9.604
		C105.353,74.419,109.452,77.353,113.832,76.59z M119.258,86.194c-0.121-0.241-0.241-0.522-0.362-0.804
		c-0.121,0.321-0.402,0.603-0.723,0.764c-1.045,0.402-2.049,0.04-3.134,0.161c-1.165,0.161-2.13,0.683-3.134,1.286
		c0.965,1.246,2.009,2.692,2.572,4.26c1.487-1.969,3.014-3.898,4.702-5.626C119.217,86.234,119.258,86.234,119.258,86.194z
		 M118.333,83.943c-0.482-1.648-0.603-3.416-0.161-5.224c-0.683,0.362-1.366,0.764-2.17,1.005c-1.688,0.522-3.416,0.563-5.063,0.322
		c-1.045,1.165-2.049,2.371-3.054,3.536c0.924,0.723,1.768,1.487,2.572,2.331C112.064,84.064,116.083,82.296,118.333,83.943z
		 M100.049,98.571c2.733-3.576,7.314-5.626,11.815-5.345c-0.804-1.407-1.447-2.974-2.371-4.34c-0.924-1.286-2.009-2.451-3.094-3.576
		c-3.255,3.818-6.389,7.716-9.283,11.734c1.005,0.522,1.929,1.165,2.813,1.889C99.928,98.812,99.928,98.692,100.049,98.571z
		 M111.381,96.16c-3.697-0.04-6.912,0.924-10.006,3.416c-0.201,0.161-0.442,0.201-0.643,0.161c0.563,0.563,1.165,1.125,1.648,1.808
		c1.206,1.567,2.451,3.777,2.934,5.947C107.081,103.514,109.091,99.736,111.381,96.16z M107.845,59.229
		c-0.04-0.04-0.08-0.08-0.121-0.121c-5.827-8.118-24.192-7.113-32.39-5.385c-7.675,1.648-15.11,5.104-20.816,10.609
		c-8.238,7.917-11.051,18.084-10.207,29.256c0.522,7.073,2.009,19.57,8.118,24.433c3.014-2.451,7.876-5.305,9.604-8.278
		c2.451-4.219-2.491-10.087-4.34-13.864c-0.643-1.246,0.723-3.014,2.09-2.09c1.085,0.723,7.073,5.747,8.158,5.425
		c2.733-0.884,0.884-2.009,1.286-3.737c0.362-1.648,1.326-1.969,2.773-2.371c1.206-0.322,1.889,0.563,3.175,0
		c0.442-0.161,1.808-2.371,2.371-2.773c1.969-1.366,4.018-1.447,6.068-0.764c-0.04-0.522,0.201-1.085,0.804-1.246
		c4.742-1.366,7.394-5.224,10.73-8.519c1.808-1.808,4.661-4.662,7.515-5.264c-0.683-1.085-1.206-2.25-1.447-3.576
		C100.129,65.699,103.264,60.957,107.845,59.229z M102.339,108.537c-0.482-1.728-0.844-3.416-1.889-5.023
		c-1.165-1.889-2.813-3.376-4.621-4.621c-3.376,4.822-6.59,9.765-9.524,14.828c1.527,0.764,2.893,1.728,4.099,2.853
		c1.407-2.773,3.858-4.943,6.59-6.309C98.522,109.461,100.451,108.698,102.339,108.537z M98.883,125.455
		c1.326-4.702,2.893-9.363,4.702-13.864c-1.768,0.402-3.657,0.402-5.345,1.165c-2.652,1.165-4.581,3.054-6.47,5.184
		c0.482,0.482,0.924,1.005,1.326,1.567c1.246,1.688,2.612,3.938,3.255,6.229c0.643-0.161,1.246-0.281,1.889-0.362
		C98.481,125.375,98.723,125.415,98.883,125.455z M97.999,128.71c-0.522,0.08-1.005,0.281-1.527,0.402
		c-0.442,0.844-1.527,1.246-2.21,0.522c-4.099,1.407-7.555,4.059-10.127,7.836c-0.201,0.281-0.442,0.362-0.683,0.362
		c0.804,0.844,1.607,1.688,2.291,2.612c1.849,2.411,4.179,5.787,4.621,9.042c1.125-0.321,2.25-0.563,3.416-0.683
		c0,0,0,0.04,0.04,0.04C94.905,142.333,96.231,135.502,97.999,128.71z M92.815,155.193c0.121-1.005,0.281-2.049,0.442-3.054
		c-3.094,1.045-6.189,1.808-9.162,3.416c-3.094,1.648-5.907,3.818-8.64,6.068c4.541,3.777,8.278,8.76,9.765,13.784
		c0.04,0.121,0,0.201,0.04,0.281c1.808-0.442,3.697-0.764,5.586-0.884C91.208,168.253,91.811,161.703,92.815,155.193z
		 M92.936,126.741c-0.522-1.688-1.005-3.416-1.929-4.983c-1.487-2.492-3.456-4.501-5.706-6.269
		c-3.134,5.586-6.108,11.252-8.841,17.119c2.291,1.165,4.34,2.692,6.189,4.461c-0.04-0.161-0.04-0.322,0-0.482
		C84.617,132.006,88.435,128.55,92.936,126.741z M90.766,230.059c1.165-8.118,0.964-17.079,0.522-24.955
		c-10.529,2.17-18.887,7.234-26.08,15.592c-0.161,0.161-0.322,0.161-0.482,0.201c4.26,3.175,7.796,7.233,10.207,11.975
		c0.201,0.402,0.201,0.844,0.08,1.165C80.036,231.947,85.341,230.581,90.766,230.059z M90.525,190.074
		c-0.04-3.978,0.04-7.997,0.201-11.975c-8.6,0.764-15.833,4.34-22.022,10.408c-0.402,0.402-0.844,0.442-1.165,0.281
		c-0.603-0.281-0.924-1.125-0.362-1.808c3.938-4.983,9.243-8.479,15.11-10.448c-2.17-3.536-3.818-7.153-6.631-10.328
		c-2.813-3.215-6.148-5.626-9.484-8.158c-0.161-0.12-0.201-0.241-0.241-0.402c-1.929,5.264-5.184,15.15-8.198,26.683
		c3.295,0.964,6.631,2.572,9.725,4.581c5.988,3.938,11.051,9.564,13.221,15.994c3.335-1.487,6.872-2.572,10.448-3.094
		C90.846,197.307,90.565,193.249,90.525,190.074z M69.588,255.014c12.659-0.723,18.285-9.886,20.615-21.459
		c-13.06,1.768-23.951,7.394-33.394,16.637c2.733,2.934,6.55,4.541,11.694,4.26C68.985,254.411,69.347,254.692,69.588,255.014z
		 M87.43,150.491c-1.487-2.652-2.21-5.666-4.019-8.238c-2.13-3.094-4.862-5.505-7.917-7.675c-3.134,6.832-6.028,13.824-8.801,20.937
		c-0.08,0.281-0.241,0.643-0.362,0.965c0.161-0.04,0.321-0.08,0.482-0.04c2.572,0.965,5.144,2.492,7.595,4.38
		C77.464,156.559,82.246,152.661,87.43,150.491z M72.923,235.042c-0.281-0.121-0.482-0.321-0.643-0.603
		c-4.782-8.64-11.654-14.748-20.776-18.084c-1.447,13.181-0.884,25.196,3.858,32.068C60.144,242.677,66.212,238.176,72.923,235.042z
		 M77.947,206.228c-2.652-4.34-4.862-8.439-8.64-12.016c-3.617-3.376-7.675-5.706-12.176-7.595c-2.25,8.961-4.34,18.767-5.465,28.05
		c4.26,1.085,8.238,2.934,11.815,5.385c0-0.201,0-0.402,0.12-0.603C67.056,213.864,72.12,209.363,77.947,206.228z"/>
	<path style="fill:#33AA6C;" d="M222.977,59.31c-2.09,0.322-4.099,0.884-6.269,1.125c-4.139,0.402-4.099,0.362-6.43-3.376
		c-3.456-5.586-6.912-11.252-10.488-16.838c-1.085-1.688-3.617-0.563-3.215,1.366c1.125,5.506,1.849,11.051,2.371,16.597
		c-0.884-0.522-2.13-0.362-2.411,0.804c-0.723,2.934-4.42,2.411-6.59,3.536c-0.643,0.281-0.844,0.804-0.804,1.326
		c-14.467-7.233-32.068-7.876-48.263,2.411c1.165-2.532,1.447-5.546,0.322-8.76c-1.688-4.822-6.229-7.836-11.332-7.434
		c-0.08-1.125-0.201-2.25-0.402-3.376c5.465-23.629,27.607-36.127,51.638-35.082C208.108,12.775,222.173,34.475,222.977,59.31z
		 M203.647,24.75c0.804,0.764,1.889-0.402,1.206-1.205c-2.049-2.492-4.943-3.657-8.158-3.858c-0.603-0.04-0.723,0.924-0.121,1.045
		C199.347,21.294,201.678,22.741,203.647,24.75z M202.723,29.693c0.643,0.683,1.768-0.201,1.286-1.005
		c-1.366-2.331-3.536-3.898-5.988-5.023c-0.964-0.442-1.808,0.924-0.844,1.447C199.388,26.277,201.035,27.925,202.723,29.693z
		 M194.244,54.929c0.723-2.09,1.085-4.139,0.643-6.349c-0.161-0.844-1.447-0.643-1.447,0.201c0,1.969,0.121,3.898-0.201,5.867
		C193.119,55.331,194.043,55.613,194.244,54.929z M192.998,51.795c0.201-1.728,0.161-3.335-0.04-5.063
		c-0.08-0.964-1.447-1.005-1.527,0c-0.201,1.728-0.241,3.335-0.04,5.063C191.511,52.84,192.878,52.84,192.998,51.795z
		 M170.414,37.77c0.683-0.442,0.201-1.326-0.523-1.206c-2.492,0.362-4.26,2.17-5.425,4.3c-0.482,0.884,0.764,1.567,1.326,0.764
		C166.958,39.9,168.686,38.855,170.414,37.77z M145.338,31.3c0.764-0.522,0.08-1.728-0.723-1.246
		c-2.21,1.205-3.617,3.054-4.38,5.425c-0.241,0.683,0.844,1.165,1.165,0.482C142.244,34.033,143.57,32.506,145.338,31.3z
		 M140.275,30.858c0.241-0.362-0.321-0.884-0.643-0.482c-1.286,1.608-2.492,3.336-3.657,5.023c-0.402,0.563,0.482,1.085,0.884,0.522
		C138.024,34.274,139.23,32.626,140.275,30.858z"/>
	<path style="fill:#1D1D1B;" d="M215.1,115.047c0.362,3.255-0.804,6.872-2.974,9.323c-0.683,0.804-1.688-0.201-1.326-1.005
		c1.246-2.853,2.009-5.465,2.532-8.519C213.533,113.721,215.02,114.163,215.1,115.047z"/>
	<path style="fill:#33AA6C;" d="M198.182,72.812c19.852,15.873,22.906,41.512,11.855,63.413c-4.621-2.009-13.462-5.144-13.985-7.113
		c-0.402-1.407,2.371-6.59,2.773-8.278c0.723-3.014,1.045-6.028,1.246-9.082c0.12-1.648-2.291-2.21-3.054-0.844
		c-1.768,3.215-3.737,6.269-5.787,9.243c0-0.643,0.04-1.326,0.04-1.969c0.04-1.125-1.045-1.728-2.009-1.527
		c-2.371,0.442-3.938,2.893-5.827,2.612c-2.049-0.321-2.09-2.331-4.822-1.206c-0.201,0.04-0.362,0.161-0.482,0.281
		c-1.366-0.763-2.572-1.849-3.898-2.652c-1.286-0.763-2.733-1.246-4.219-1.286c-4.099-14.306-17.441-25.799-31.907-28.451
		c0.804-1.728,1.165-3.617,1.125-5.666c-0.08-2.813-0.884-6.028-2.893-7.957C155.666,59.872,179.415,57.823,198.182,72.812z
		 M212.127,124.37c2.17-2.451,3.335-6.068,2.974-9.323c-0.08-0.884-1.567-1.326-1.768-0.201c-0.522,3.054-1.286,5.666-2.532,8.519
		C210.439,124.169,211.443,125.174,212.127,124.37z M211.042,120.794c0.844-2.492,0.924-4.983,0-7.434
		c-0.362-0.965-1.648-0.563-1.487,0.402c0.362,2.21,0.402,4.38-0.161,6.59C209.153,121.437,210.72,121.839,211.042,120.794z
		 M192.757,109.381c0.362-0.643-0.482-1.206-0.964-0.764c-1.607,1.447-2.009,3.536-1.607,5.586c0.121,0.603,1.045,0.442,1.045-0.161
		C191.19,112.234,191.793,110.908,192.757,109.381z M185.403,95.195c0.844,0.884,2.13-0.241,1.607-1.205
		c-0.884-1.688-2.532-2.411-4.34-2.532c-1.085-0.04-1.326,1.688-0.281,1.889C183.715,93.588,184.519,94.271,185.403,95.195z
		 M172.905,72.169c1.005,0.201,1.366-1.206,0.402-1.567c-2.853-1.045-5.907-0.643-8.6,0.603c-0.643,0.281-0.201,1.326,0.482,1.125
		C167.802,71.446,170.213,71.606,172.905,72.169z M166.194,67.829c0.603-0.121,0.482-1.125-0.121-1.085
		c-2.773,0.201-5.465,0.683-8.158,1.165c-0.603,0.08-0.482,1.085,0.121,1.045C160.81,68.673,163.502,68.351,166.194,67.829z"/>
	<path style="fill:#1D1D1B;" d="M211.042,113.359c0.924,2.451,0.844,4.943,0,7.434c-0.321,1.045-1.889,0.643-1.648-0.442
		c0.563-2.21,0.522-4.38,0.161-6.59C209.394,112.797,210.68,112.395,211.042,113.359z"/>
	<path style="fill:#1D1D1B;" d="M204.853,23.544c0.683,0.804-0.402,1.969-1.206,1.205c-1.969-2.009-4.3-3.456-7.073-4.018
		c-0.603-0.121-0.482-1.085,0.121-1.045C199.91,19.888,202.803,21.053,204.853,23.544z"/>
	<path style="fill:#1D1D1B;" d="M204.009,28.688c0.482,0.804-0.643,1.688-1.286,1.005c-1.688-1.768-3.335-3.416-5.546-4.581
		c-0.964-0.522-0.12-1.889,0.844-1.447C200.473,24.79,202.643,26.357,204.009,28.688z"/>
	<path style="fill:#1D1D1B;" d="M194.887,48.58c0.442,2.21,0.08,4.26-0.643,6.349c-0.201,0.683-1.125,0.402-1.005-0.281
		c0.322-1.969,0.201-3.898,0.201-5.867C193.44,47.937,194.726,47.736,194.887,48.58z"/>
	<path style="fill:#1D1D1B;" d="M192.958,46.732c0.201,1.728,0.241,3.335,0.04,5.063c-0.121,1.045-1.487,1.045-1.607,0
		c-0.201-1.728-0.161-3.335,0.04-5.063C191.511,45.727,192.878,45.767,192.958,46.732z"/>
	<path style="fill:#1D1D1B;" d="M191.793,108.617c0.482-0.442,1.326,0.121,0.964,0.764c-0.964,1.527-1.567,2.853-1.527,4.661
		c0,0.603-0.924,0.763-1.045,0.161C189.783,112.154,190.185,110.064,191.793,108.617z"/>
	<path style="fill:#1D1D1B;" d="M187.01,93.99c0.522,0.964-0.763,2.09-1.607,1.205c-0.884-0.924-1.688-1.607-3.014-1.849
		c-1.045-0.201-0.804-1.929,0.281-1.889C184.479,91.579,186.126,92.302,187.01,93.99z"/>
	<path style="fill:#1D1D1B;" d="M173.307,70.602c0.964,0.362,0.603,1.768-0.402,1.567c-2.692-0.563-5.104-0.723-7.716,0.161
		c-0.683,0.201-1.125-0.844-0.482-1.125C167.4,69.959,170.454,69.557,173.307,70.602z"/>
	<path style="fill:#1D1D1B;" d="M169.891,36.565c0.723-0.12,1.206,0.764,0.523,1.206c-1.728,1.085-3.456,2.13-4.621,3.858
		c-0.563,0.804-1.808,0.121-1.326-0.764C165.632,38.735,167.4,36.926,169.891,36.565z"/>
	<path style="fill:#33AA6C;" d="M166.877,116.976c6.028,24.835-22.343,30.863-40.668,26.643c0.362-3.335,0.362-6.671,0.201-10.006
		c5.184,1.206,10.529,1.487,15.833,0.924c1.527-0.161,2.572-2.371,0.884-3.215c-5.305-2.572-10.81-4.742-16.436-6.51
		c2.371-0.683,5.023-1.768,4.219-4.461c-0.241-0.764-0.643-1.045-1.125-1.527c-1.206-1.286-1.848-0.603-0.844-1.527
		c1.005-1.005,2.291-0.522,2.974-2.21c0.442-1.085,0.12-2.009-0.402-3.014c-1.205-2.21-2.17-1.125-0.844-3.175
		c0.764-1.165,1.487-1.407,1.447-2.974c-0.08-2.009-1.929-3.416-1.929-5.465c0-0.563-0.322-0.965-0.723-1.125
		c-0.04-1.165-0.362-2.25-0.924-3.295c0.723-1.246,1.206-2.813,0.844-4.219c1.125-0.08,2.21-0.321,3.335-0.763
		c1.728-0.683,3.094-1.728,4.099-2.974C150.843,92.222,163.261,102.188,166.877,116.976z M159.282,130.077
		c2.773-1.607,4.461-4.461,4.019-7.675c-0.121-0.884-1.407-0.563-1.447,0.201c-0.201,2.612-1.125,4.943-3.255,6.59
		C158.077,129.594,158.76,130.398,159.282,130.077z M148.914,103.072c0.643,0.683,1.567-0.281,1.005-1.005
		c-2.25-2.853-5.345-4.38-8.921-4.862c-0.482-0.04-0.603,0.763-0.121,0.924C144.012,98.973,146.704,100.741,148.914,103.072z
		 M147.588,97.888c0.522,0.482,1.246-0.241,0.763-0.764c-1.969-2.13-4.38-3.295-7.233-3.777c-0.683-0.121-0.964,0.884-0.281,1.045
		C143.369,94.954,145.619,96.2,147.588,97.888z"/>
	<path style="fill:#1D1D1B;" d="M166.074,66.744c0.603-0.04,0.723,0.964,0.121,1.085c-2.692,0.522-5.385,0.844-8.158,1.125
		c-0.603,0.04-0.723-0.965-0.121-1.045C160.608,67.427,163.301,66.945,166.074,66.744z"/>
	<path style="fill:#1D1D1B;" d="M163.301,122.401c0.442,3.215-1.246,6.068-4.019,7.675c-0.522,0.322-1.206-0.482-0.683-0.884
		c2.13-1.648,3.054-3.978,3.255-6.59C161.894,121.839,163.18,121.517,163.301,122.401z"/>
	<path style="fill:#1D1D1B;" d="M149.919,102.067c0.563,0.723-0.362,1.688-1.005,1.005c-2.21-2.331-4.903-4.099-8.037-4.943
		c-0.482-0.161-0.362-0.965,0.121-0.924C144.575,97.687,147.669,99.214,149.919,102.067z"/>
	<path style="fill:#1D1D1B;" d="M148.352,97.124c0.482,0.522-0.241,1.246-0.763,0.764c-1.969-1.688-4.22-2.934-6.751-3.496
		c-0.683-0.161-0.402-1.165,0.281-1.045C143.972,93.829,146.383,94.995,148.352,97.124z"/>
	<path style="fill:#1D1D1B;" d="M144.615,30.055c0.804-0.482,1.487,0.723,0.723,1.246c-1.768,1.206-3.094,2.733-3.938,4.662
		c-0.322,0.683-1.407,0.201-1.165-0.482C140.998,33.109,142.404,31.26,144.615,30.055z"/>
	<path style="fill:#1D1D1B;" d="M139.632,30.376c0.322-0.402,0.884,0.121,0.643,0.482c-1.045,1.768-2.25,3.416-3.416,5.063
		c-0.402,0.563-1.286,0.04-0.884-0.522C137.14,33.711,138.346,31.983,139.632,30.376z"/>
	<path style="fill:#683C11;" d="M138.627,59.189c2.612,8.68-7.394,13.944-14.065,9.002c-0.08-0.04-0.121-0.04-0.201-0.08
		c0-1.607-0.322-3.175-0.965-4.742c-0.402-0.884-1.085-1.849-1.929-2.733C123.316,52.358,135.894,50.228,138.627,59.189z
		 M133.925,63.931c2.049,0,2.049-3.215,0-3.215S131.876,63.931,133.925,63.931z M131.836,66.342c0.161-2.451-4.019-2.451-3.858,0
		c0.04,0.161,0.04,0.322,0.04,0.482c0.201,2.411,3.576,2.451,3.777,0C131.795,66.664,131.795,66.503,131.836,66.342z
		 M126.812,61.841c-0.723,2.09,3.054,2.371,2.813,0.281c0.121-0.884-0.563-1.808-1.607-1.487
		C127.375,60.837,127.053,61.198,126.812,61.841z"/>
	<path style="fill:#683C11;" d="M132.519,73.294c3.215,1.005,3.576,5.304,3.335,8.158c-0.322,3.175-2.17,5.747-5.345,6.671
		c-6.791,1.969-10.207-5.023-9.725-10.77c0-0.161-0.08-0.281-0.161-0.442c1.607-1.567,2.813-3.496,3.376-5.706
		c2.532,1.648,5.305,2.09,7.876,1.688C132.036,73.053,132.237,73.214,132.519,73.294z M129.907,84.747c2.371,0,2.371-3.657,0-3.657
		S127.536,84.747,129.907,84.747z"/>
	<path style="fill:#1D1D1B;" d="M133.925,60.716c2.049,0,2.049,3.215,0,3.215S131.876,60.716,133.925,60.716z"/>
	<path style="fill:#1D1D1B;" d="M127.978,66.342c-0.161-2.451,4.018-2.451,3.858,0c-0.04,0.161-0.04,0.322-0.04,0.482
		c-0.201,2.451-3.577,2.411-3.777,0C128.018,66.664,128.018,66.503,127.978,66.342z"/>
	<path style="fill:#1D1D1B;" d="M129.907,81.09c2.371,0,2.371,3.657,0,3.657S127.536,81.09,129.907,81.09z"/>
	<path style="fill:#1D1D1B;" d="M129.625,62.123c0.241,2.09-3.536,1.808-2.813-0.281c0.241-0.643,0.563-1.005,1.206-1.205
		C129.063,60.314,129.746,61.239,129.625,62.123z"/>
	<path style="fill:#33AA6C;" d="M126.652,50.268c0,0.201,0.12,0.321,0.201,0.442c-3.777,1.286-6.791,4.34-7.193,8.359
		c-3.014-2.25-6.992-3.376-9.323-0.522c-0.402,0.08-0.804,0.201-1.206,0.281c0-0.08,0.04-0.201,0.04-0.322
		c-2.371-9.283-15.271-9.444-23.348-9.484c-2.09-0.04-4.179,0.121-6.269,0.321c0-1.567-1.607-2.491-3.255-2.652
		c0-0.964-0.08-1.889-0.321-2.853c-0.201-0.764-1.005-1.165-1.728-0.964c-0.603,0.12-1.205,0.161-1.808,0.161
		c-0.08-0.643-0.563-1.326-1.366-1.447c1.286,0-5.144-3.295-5.144-3.014c-0.884-0.924-0.924-2.733-2.17-4.099
		c-0.643-0.683-1.728-0.603-2.371,0c-0.683,0.723-1.407,1.286-2.17,1.808c0.804-4.38,1.648-8.76,2.451-13.101
		c0.321-1.808-1.527-2.773-2.893-1.688c-4.139,3.255-6.269,7.876-9.926,11.212c-2.411,2.17-3.978,1.005-7.153,0.161
		c-1.688-0.442-3.376-0.884-5.063-1.286c-0.603-0.362-1.085-0.563-1.527-0.603c9.081-26.04,36.769-32.63,60.277-21.82
		c16.878,7.756,26.804,21.66,31.385,38.98C126.732,48.861,126.652,49.545,126.652,50.268z M124.12,49.545
		c0.924-0.201,0.723-1.688-0.241-1.688c-3.376,0.04-6.148,2.411-6.912,5.666c-0.281,1.206,1.366,1.607,1.768,0.522
		C119.659,51.634,121.669,50.147,124.12,49.545z M96.03,42.552c0.884,0.321,1.407-1.045,0.643-1.527
		c-2.13-1.206-4.541-1.567-6.952-1.527c-0.884,0.04-0.844,1.286,0,1.366C91.971,41.025,93.94,41.749,96.03,42.552z M94.101,44.803
		c0.683,0.201,1.165-0.804,0.482-1.165c-2.331-1.286-4.943-1.326-7.515-0.924c-0.603,0.121-0.482,1.165,0.161,1.085
		C89.641,43.637,91.771,44.2,94.101,44.803z M84.537,12.252c0.764,0.723,1.849-0.362,1.165-1.165
		c-2.21-2.572-5.586-3.335-8.761-2.331c-0.964,0.281-0.563,1.688,0.402,1.447C79.956,9.56,82.568,10.404,84.537,12.252z
		 M83.01,7.751c0.965,0.201,1.326-1.165,0.402-1.487c-1.929-0.643-3.898-0.563-5.867-0.201c-0.603,0.121-0.482,1.085,0.12,1.085
		C79.514,7.068,81.202,7.39,83.01,7.751z M73.446,21.897c0.844,0.321,1.326-1.005,0.603-1.447c-1.688-1.045-3.496-1.286-5.425-1.045
		c-0.924,0.08-0.964,1.487,0,1.447C70.351,20.812,71.838,21.254,73.446,21.897z"/>
	<path style="fill:#1D1D1B;" d="M123.879,47.857c0.964,0,1.165,1.487,0.241,1.688c-2.451,0.603-4.461,2.09-5.385,4.501
		c-0.402,1.085-2.05,0.683-1.768-0.522C117.73,50.268,120.503,47.897,123.879,47.857z"/>
	<path style="fill:#683C11;" d="M120.744,66.382c0.964,4.782-2.13,9.363-6.912,10.207c-4.38,0.764-8.479-2.17-9.323-6.55
		c-0.884-4.702,2.934-8.76,7.314-9.604c1.768-0.362,3.255-0.683,5.104,0.321C119.016,61.922,120.302,64.052,120.744,66.382z
		 M112.305,65.458c2.09,0,2.09-3.255,0-3.255C110.256,62.203,110.256,65.458,112.305,65.458z M112.305,70.521
		c2.291-0.924,0.723-4.34-1.326-3.094c-0.442,0.281-0.804,0.563-1.205,0.924c-1.246,0.965,0.12,2.893,1.487,2.532
		C111.622,70.803,111.944,70.682,112.305,70.521z"/>
	<path style="fill:#CA9E67;" d="M118.896,85.39c0.121,0.281,0.241,0.563,0.362,0.804c0,0.04-0.04,0.04-0.08,0.04
		c-1.688,1.728-3.215,3.657-4.702,5.626c-0.563-1.567-1.607-3.014-2.572-4.26c1.005-0.603,1.969-1.125,3.134-1.286
		c1.085-0.121,2.09,0.241,3.134-0.161C118.494,85.993,118.775,85.712,118.896,85.39z"/>
	<path style="fill:#CA9E67;" d="M118.172,78.719c-0.442,1.808-0.321,3.576,0.161,5.224c-2.25-1.648-6.269,0.121-7.876,1.969
		c-0.804-0.844-1.648-1.607-2.572-2.331c1.005-1.165,2.009-2.371,3.054-3.536c1.648,0.241,3.376,0.201,5.063-0.322
		C116.806,79.483,117.489,79.081,118.172,78.719z"/>
	<path style="fill:#1D1D1B;" d="M112.305,62.203c2.09,0,2.09,3.255,0,3.255C110.256,65.458,110.256,62.203,112.305,62.203z"/>
	<path style="fill:#1D1D1B;" d="M110.979,67.427c2.049-1.246,3.617,2.17,1.326,3.094c-0.362,0.161-0.683,0.281-1.045,0.362
		c-1.366,0.362-2.733-1.567-1.487-2.532C110.175,67.99,110.537,67.708,110.979,67.427z"/>
	<path style="fill:#CA9E67;" d="M111.863,93.226c-4.501-0.281-9.082,1.768-11.815,5.345c-0.12,0.121-0.12,0.241-0.12,0.362
		c-0.884-0.723-1.808-1.366-2.813-1.889c2.893-4.019,6.028-7.917,9.283-11.734c1.085,1.125,2.17,2.291,3.094,3.576
		C110.417,90.253,111.06,91.82,111.863,93.226z"/>
	<path style="fill:#CA9E67;" d="M101.375,99.576c3.094-2.492,6.309-3.456,10.006-3.416c-2.291,3.576-4.3,7.354-6.068,11.332
		c-0.482-2.17-1.728-4.38-2.934-5.947c-0.482-0.683-1.085-1.246-1.648-1.808C100.933,99.777,101.174,99.736,101.375,99.576z"/>
	<path style="fill:#33AA6C;" d="M107.724,59.109c0.04,0.04,0.08,0.08,0.121,0.121c-4.581,1.728-7.716,6.47-6.631,11.734
		c0.241,1.326,0.764,2.492,1.447,3.576c-2.853,0.603-5.706,3.456-7.515,5.264c-3.335,3.295-5.988,7.153-10.73,8.519
		c-0.603,0.161-0.844,0.723-0.804,1.246c-2.05-0.683-4.099-0.603-6.068,0.764c-0.563,0.402-1.929,2.612-2.371,2.773
		c-1.286,0.563-1.969-0.322-3.175,0c-1.447,0.402-2.411,0.723-2.773,2.371c-0.402,1.728,1.447,2.853-1.286,3.737
		c-1.085,0.321-7.073-4.702-8.158-5.425c-1.366-0.924-2.733,0.844-2.09,2.09c1.849,3.777,6.791,9.645,4.34,13.864
		c-1.728,2.974-6.59,5.827-9.604,8.278c-6.108-4.863-7.595-17.36-8.118-24.433c-0.844-11.172,1.969-21.339,10.207-29.255
		c5.706-5.505,13.141-8.961,20.816-10.609C83.532,51.996,101.897,50.991,107.724,59.109z M83.693,61.962
		c0.763-0.08,0.804-1.165,0-1.246c-2.331-0.12-4.501,0.643-6.47,1.849c-0.603,0.362-0.08,1.286,0.563,0.964
		C79.675,62.525,81.604,62.163,83.693,61.962z M78.348,58.988c0.804-0.161,0.603-1.406-0.201-1.406
		c-2.974,0-5.787,1.206-8.318,2.733c-0.643,0.402-0.08,1.326,0.603,1.005C73.004,60.113,75.616,59.631,78.348,58.988z M74.37,77.634
		c0.844-0.161,0.643-1.567-0.241-1.527c-1.607,0.04-2.853,0.683-4.019,1.768c-0.723,0.683,0.322,1.648,1.045,1.045
		C72.12,78.157,73.164,77.835,74.37,77.634z M51.183,89.851c0.402-0.844-0.683-1.447-1.206-0.723
		c-1.085,1.487-1.607,3.175-1.728,4.903c0-0.362-0.04-0.723-0.04-1.085c0-0.884-1.366-1.125-1.567-0.201
		c-0.924,3.978-0.201,8.56,1.889,12.096c0.362,0.603,1.326,0.201,1.125-0.482c-0.723-2.853-1.085-5.586-1.286-8.399
		c0.161,1.165,0.442,2.331,0.924,3.416c0.281,0.603,1.286,0.161,1.085-0.442C49.294,95.838,49.736,92.744,51.183,89.851z"/>
	<path style="fill:#CA9E67;" d="M100.451,103.514c1.045,1.607,1.406,3.295,1.889,5.023c-1.889,0.161-3.818,0.924-5.345,1.728
		c-2.733,1.366-5.184,3.536-6.59,6.309c-1.206-1.125-2.572-2.09-4.099-2.853c2.934-5.063,6.148-10.006,9.524-14.828
		C97.638,100.138,99.285,101.625,100.451,103.514z"/>
	<path style="fill:#CA9E67;" d="M103.585,111.591c-1.808,4.501-3.376,9.162-4.702,13.864c-0.161-0.04-0.402-0.08-0.643-0.08
		c-0.643,0.08-1.246,0.201-1.889,0.362c-0.643-2.291-2.009-4.541-3.255-6.229c-0.402-0.563-0.844-1.085-1.326-1.567
		c1.889-2.13,3.818-4.019,6.47-5.184C99.928,111.993,101.817,111.993,103.585,111.591z"/>
	<path style="fill:#CA9E67;" d="M96.472,129.112c0.522-0.12,1.005-0.321,1.527-0.402c-1.768,6.791-3.094,13.623-4.179,20.133
		c-0.04,0-0.04-0.04-0.04-0.04c-1.165,0.121-2.291,0.362-3.416,0.683c-0.442-3.255-2.773-6.631-4.621-9.042
		c-0.683-0.924-1.487-1.768-2.291-2.612c0.241,0,0.482-0.08,0.683-0.362c2.572-3.778,6.028-6.43,10.127-7.836
		C94.945,130.358,96.03,129.956,96.472,129.112z M90.565,139.842c0.121,0.643,1.206,0.522,1.125-0.161
		c-0.161-1.688-1.125-2.813-2.813-3.134c-0.683-0.121-0.924,0.804-0.281,1.005C89.721,137.953,90.324,138.717,90.565,139.842z"/>
	<path style="fill:#1D1D1B;" d="M96.673,41.025c0.764,0.482,0.241,1.849-0.643,1.527c-2.09-0.804-4.059-1.527-6.309-1.688
		c-0.844-0.08-0.884-1.326,0-1.366C92.132,39.458,94.543,39.82,96.673,41.025z"/>
	<path style="fill:#1D1D1B;" d="M94.583,43.637c0.683,0.362,0.201,1.366-0.482,1.165c-2.331-0.603-4.461-1.165-6.872-1.005
		c-0.643,0.08-0.764-0.965-0.161-1.085C89.641,42.311,92.253,42.351,94.583,43.637z"/>
	<path style="fill:#CA9E67;" d="M93.257,152.139c-0.161,1.005-0.322,2.049-0.442,3.054c-1.005,6.51-1.607,13.06-1.969,19.611
		c-1.889,0.12-3.777,0.442-5.586,0.884c-0.04-0.08,0-0.161-0.04-0.281c-1.487-5.023-5.224-10.006-9.765-13.784
		c2.733-2.25,5.546-4.421,8.64-6.068C87.069,153.947,90.163,153.183,93.257,152.139z"/>
	<path style="fill:#1D1D1B;" d="M91.69,139.681c0.08,0.683-1.005,0.804-1.125,0.161c-0.241-1.125-0.844-1.889-1.969-2.291
		c-0.643-0.201-0.402-1.125,0.281-1.005C90.565,136.868,91.529,137.993,91.69,139.681z"/>
	<path style="fill:#CA9E67;" d="M91.007,121.758c0.924,1.567,1.407,3.295,1.929,4.983c-4.501,1.808-8.319,5.264-10.288,9.845
		c-0.04,0.161-0.04,0.322,0,0.482c-1.848-1.768-3.898-3.295-6.189-4.461c2.733-5.867,5.706-11.533,8.841-17.119
		C87.551,117.257,89.52,119.267,91.007,121.758z M89.158,124.652c0.522,0.603,1.407-0.201,1.045-0.844
		c-0.563-1.045-1.205-2.049-1.929-3.014c-0.563-0.804-1.889-0.08-1.326,0.764C87.631,122.642,88.355,123.647,89.158,124.652z"/>
	<path style="fill:#CA9E67;" d="M91.288,205.103c0.442,7.876,0.643,16.838-0.522,24.955c-5.425,0.522-10.73,1.889-15.753,3.978
		c0.12-0.321,0.12-0.763-0.08-1.165c-2.411-4.742-5.947-8.801-10.207-11.975c0.161-0.04,0.322-0.04,0.482-0.201
		C72.401,212.337,80.76,207.273,91.288,205.103z M84.376,212.779c0.844-0.161,0.603-1.406-0.201-1.447
		c-2.25-0.12-3.938,0.965-5.224,2.733c-0.482,0.683,0.563,1.487,1.125,0.884C81.242,213.663,82.689,213.06,84.376,212.779z"/>
	<path style="fill:#CA9E67;" d="M90.726,178.099c-0.161,3.978-0.241,7.997-0.201,11.975c0.04,3.175,0.322,7.233,0.603,11.734
		c-3.576,0.522-7.113,1.607-10.448,3.094c-2.17-6.43-7.233-12.056-13.221-15.994l0.08-0.12c0.322,0.161,0.764,0.12,1.165-0.281
		C74.892,182.439,82.126,178.862,90.726,178.099z M81.523,194.615c0.322,0.763,1.407,0.482,1.246-0.322
		c-0.442-2.13-1.849-3.978-3.778-4.903c-0.482-0.241-1.085,0.362-0.603,0.764C79.875,191.44,80.84,192.766,81.523,194.615z
		 M79.514,194.133c0.281,0.241,0.804-0.08,0.563-0.442c-0.965-1.527-2.371-2.813-3.577-4.099c-0.362-0.402-0.924,0.161-0.603,0.563
		C77.063,191.48,78.147,193.048,79.514,194.133z"/>
	<path style="fill:#1D1D1B;" d="M90.203,123.808c0.362,0.643-0.522,1.447-1.045,0.844c-0.804-1.005-1.527-2.009-2.21-3.094
		c-0.563-0.844,0.764-1.567,1.326-0.764C88.998,121.758,89.641,122.763,90.203,123.808z"/>
	<path style="fill:#1D1D1B;" d="M85.702,11.087c0.683,0.804-0.402,1.889-1.165,1.165c-1.969-1.849-4.581-2.692-7.193-2.05
		c-0.964,0.241-1.366-1.165-0.402-1.447C80.117,7.751,83.492,8.515,85.702,11.087z"/>
	<path style="fill:#CA9E67;" d="M90.203,233.555c-2.331,11.574-7.957,20.736-20.615,21.459c-0.241-0.322-0.603-0.603-1.085-0.563
		c-5.144,0.281-8.961-1.326-11.694-4.26C66.253,240.949,77.143,235.323,90.203,233.555z"/>
	<path style="fill:#1D1D1B;" d="M84.175,211.332c0.804,0.04,1.045,1.286,0.201,1.447c-1.688,0.281-3.134,0.884-4.3,2.17
		c-0.563,0.603-1.608-0.201-1.125-0.884C80.237,212.297,81.925,211.212,84.175,211.332z"/>
	<path style="fill:#CA9E67;" d="M83.412,142.253c1.808,2.572,2.532,5.586,4.019,8.238c-5.184,2.17-9.966,6.068-13.02,10.328
		c-2.451-1.889-5.023-3.416-7.595-4.38c-0.161-0.04-0.322,0-0.482,0.04c0.12-0.322,0.281-0.683,0.362-0.965
		c2.773-7.113,5.666-14.105,8.801-20.937C78.549,136.747,81.282,139.159,83.412,142.253z M82.166,151.817
		c0.763-0.08,0.804-1.125,0-1.165c-2.652-0.121-4.863,1.005-6.55,3.054c-0.402,0.482,0.201,1.045,0.643,0.643
		C77.947,152.902,79.956,152.098,82.166,151.817z M81.845,146.312c0.723-0.12,0.563-1.366-0.161-1.286
		c-1.969,0.241-3.536,0.884-4.943,2.25c-0.482,0.482,0.161,1.406,0.723,0.964C78.831,147.276,80.237,146.633,81.845,146.312z"/>
	<path style="fill:#1D1D1B;" d="M83.693,60.716c0.804,0.08,0.763,1.165,0,1.246c-2.09,0.201-4.019,0.563-5.907,1.567
		c-0.643,0.321-1.165-0.603-0.563-0.964C79.192,61.359,81.362,60.596,83.693,60.716z"/>
	<path style="fill:#1D1D1B;" d="M83.412,6.265c0.924,0.322,0.563,1.688-0.402,1.487c-1.808-0.362-3.496-0.683-5.345-0.603
		c-0.603,0-0.723-0.964-0.12-1.085C79.514,5.702,81.483,5.622,83.412,6.265z"/>
	<path style="fill:#1D1D1B;" d="M82.769,194.293c0.161,0.804-0.924,1.085-1.246,0.322c-0.683-1.849-1.648-3.175-3.134-4.461
		c-0.482-0.402,0.12-1.005,0.603-0.764C80.92,190.315,82.327,192.164,82.769,194.293z"/>
	<path style="fill:#1D1D1B;" d="M82.166,150.652c0.804,0.04,0.763,1.085,0,1.165c-2.21,0.281-4.22,1.085-5.907,2.532
		c-0.442,0.402-1.045-0.161-0.643-0.643C77.304,151.656,79.514,150.531,82.166,150.652z"/>
	<path style="fill:#1D1D1B;" d="M81.684,145.026c0.723-0.08,0.884,1.165,0.161,1.286c-1.607,0.322-3.014,0.965-4.38,1.929
		c-0.563,0.442-1.206-0.482-0.723-0.964C78.147,145.91,79.715,145.267,81.684,145.026z"/>
	<path style="fill:#1D1D1B;" d="M80.077,193.691c0.241,0.362-0.281,0.683-0.563,0.442c-1.366-1.085-2.451-2.652-3.617-3.978
		c-0.321-0.402,0.241-0.965,0.603-0.563C77.705,190.878,79.112,192.164,80.077,193.691z"/>
	<path style="fill:#1D1D1B;" d="M78.147,57.582c0.804,0,1.005,1.246,0.201,1.406c-2.733,0.643-5.345,1.125-7.917,2.331
		c-0.683,0.322-1.246-0.603-0.603-1.005C72.361,58.787,75.174,57.582,78.147,57.582z"/>
	<path style="fill:#CA9E67;" d="M75.656,166.204c2.813,3.175,4.461,6.791,6.631,10.328c-5.867,1.969-11.172,5.465-15.11,10.448
		c-0.563,0.683-0.241,1.527,0.362,1.808l-0.08,0.12c-3.094-2.009-6.43-3.617-9.725-4.581c3.014-11.533,6.269-21.419,8.198-26.683
		c0.04,0.161,0.08,0.281,0.241,0.402C69.508,160.578,72.843,162.989,75.656,166.204z M74.651,179.103
		c0.723,0,0.964-1.165,0.161-1.326c-2.451-0.482-4.541,0.563-5.787,2.733c-0.281,0.522,0.402,1.085,0.844,0.643
		C71.155,179.827,72.803,179.184,74.651,179.103z"/>
	<path style="fill:#1D1D1B;" d="M74.812,177.777c0.804,0.161,0.563,1.326-0.161,1.326c-1.849,0.08-3.496,0.723-4.782,2.049
		c-0.442,0.442-1.125-0.121-0.844-0.643C70.271,178.34,72.361,177.295,74.812,177.777z"/>
	<path style="fill:#1D1D1B;" d="M74.129,76.107c0.884-0.04,1.085,1.366,0.241,1.527c-1.206,0.201-2.25,0.522-3.215,1.286
		c-0.723,0.603-1.768-0.362-1.045-1.045C71.276,76.79,72.522,76.147,74.129,76.107z"/>
	<path style="fill:#1D1D1B;" d="M74.049,20.45c0.723,0.442,0.241,1.768-0.603,1.447c-1.607-0.643-3.094-1.085-4.822-1.045
		c-0.964,0.04-0.924-1.366,0-1.447C70.552,19.164,72.361,19.405,74.049,20.45z"/>
	<path style="fill:#CA9E67;" d="M72.28,234.439c0.161,0.281,0.362,0.482,0.643,0.603c-6.711,3.135-12.779,7.635-17.561,13.382
		c-4.742-6.872-5.304-18.887-3.858-32.068C60.627,219.691,67.498,225.799,72.28,234.439z M62.957,233.193
		c0.482,0.603,1.487-0.161,1.085-0.804c-1.527-2.291-3.617-3.697-6.269-4.501c-0.563-0.161-0.964,0.723-0.402,0.964
		C59.622,229.817,61.43,231.345,62.957,233.193z M62.234,228.21c0.643,0.442,1.407-0.563,0.844-1.125
		c-2.09-1.969-4.621-3.014-7.515-3.215c-0.723-0.08-0.924,1.165-0.161,1.286C57.934,225.678,60.144,226.723,62.234,228.21z"/>
	<path style="fill:#CA9E67;" d="M69.307,194.213c3.778,3.577,5.988,7.675,8.64,12.016c-5.827,3.134-10.89,7.635-14.346,13.221
		c-0.12,0.201-0.12,0.402-0.12,0.603c-3.577-2.451-7.555-4.3-11.815-5.385c1.125-9.283,3.215-19.088,5.465-28.05
		C61.631,188.507,65.69,190.837,69.307,194.213z"/>
	<path style="fill:#1D1D1B;" d="M64.042,232.389c0.402,0.643-0.603,1.407-1.085,0.804c-1.527-1.849-3.335-3.376-5.586-4.34
		c-0.563-0.241-0.161-1.125,0.402-0.964C60.426,228.692,62.515,230.099,64.042,232.389z"/>
	<path style="fill:#1D1D1B;" d="M63.078,227.085c0.563,0.563-0.201,1.567-0.844,1.125c-2.09-1.487-4.3-2.532-6.832-3.054
		c-0.764-0.121-0.563-1.366,0.161-1.286C58.457,224.071,60.988,225.116,63.078,227.085z"/>
	<path style="fill:#1D1D1B;" d="M49.977,89.127c0.522-0.723,1.607-0.121,1.206,0.723c-1.447,2.893-1.889,5.988-0.804,9.082
		c0.201,0.603-0.804,1.045-1.085,0.442c-0.482-1.085-0.764-2.25-0.924-3.416c0.201,2.813,0.563,5.546,1.286,8.399
		c0.201,0.683-0.764,1.085-1.125,0.482c-2.09-3.536-2.813-8.118-1.889-12.096c0.201-0.924,1.567-0.683,1.567,0.201
		c0,0.362,0.04,0.723,0.04,1.085C48.37,92.302,48.892,90.614,49.977,89.127z"/>
</g>
<g>
</g>
<g>
</g>
<g>
</g>
<g>
</g>
<g>
</g>
<g>
</g>
<g>
</g>
<g>
</g>
<g>
</g>
<g>
</g>
<g>
</g>
<g>
</g>
<g>
</g>
<g>
</g>
<g>
</g>
</svg>
