
<svg xmlns="http://www.w3.org/2000/svg" viewBox="0 0 1440 320">
  <path fill="#0099ff" fill-opacity="1" d="M0,128L21.8,117.3C43.6,107,87,85,131,101.3C174.5,117,218,171,262,181.3C305.5,192,349,160,393,165.3C436.4,171,480,213,524,213.3C567.3,213,611,171,655,165.3C698.2,160,742,192,785,208C829.1,224,873,224,916,197.3C960,171,1004,117,1047,122.7C1090.9,128,1135,192,1178,197.3C1221.8,203,1265,149,1309,133.3C1352.7,117,1396,139,1418,149.3L1440,160L1440,320L1418.2,320C1396.4,320,1353,320,1309,320C1265.5,320,1222,320,1178,320C1134.5,320,1091,320,1047,320C1003.6,320,960,320,916,320C872.7,320,829,320,785,320C741.8,320,698,320,655,320C610.9,320,567,320,524,320C480,320,436,320,393,320C349.1,320,305,320,262,320C218.2,320,175,320,131,320C87.3,320,44,320,22,320L0,320Z"></path>
</svg>